<svg height="507pt" viewBox="-11 0 507 507.50877" width="507pt" xmlns="http://www.w3.org/2000/svg"><path d="m413.449219 408.703125c-.96875 0-1.933594-.160156-2.847657-.46875l-34.683593-11.585937c-3.046875-1.019532-5.320313-3.589844-5.964844-6.738282-.640625-3.148437.445313-6.402344 2.851563-8.53125 2.410156-2.132812 5.769531-2.816406 8.816406-1.796875l30.03125 10.066407 41.085937-32.875c3.871094-3.101563 9.527344-2.472657 12.628907 1.402343 3.097656 3.875 2.472656 9.527344-1.402344 12.628907l-44.914063 35.929687c-1.589843 1.273437-3.566406 1.964844-5.601562 1.96875zm0 0" fill="#a5a5a4"/><path d="m467.34375 372.773438h-17.964844c-9.921875 0-17.964844-8.042969-17.964844-17.964844v-17.964844c0-4.960938 4.019532-8.984375 8.980469-8.984375 4.960938 0 8.984375 4.023437 8.984375 8.984375v17.964844h17.964844v-17.964844c0-4.960938 4.019531-8.984375 8.980469-8.984375 4.960937 0 8.984375 4.023437 8.984375 8.984375v17.964844c0 9.921875-8.042969 17.964844-17.964844 17.964844zm0 0" fill="#f3d55b"/><path d="m72.113281 408.703125c-2.039062 0-4.019531-.695313-5.613281-1.96875l-44.914062-35.929687c-3.871094-3.101563-4.5-8.753907-1.398438-12.628907 3.097656-3.875 8.753906-4.503906 12.628906-1.402343l41.085938 32.875 30.035156-10.03125c3.050781-1.019532 6.410156-.335938 8.816406 1.796874 2.40625 2.128907 3.496094 5.382813 2.851563 8.53125-.640625 3.152344-2.914063 5.71875-5.960938 6.738282l-34.683593 11.585937c-.917969.296875-1.878907.445313-2.847657.433594zm0 0" fill="#a5a5a4"/><path d="m36.183594 372.773438h-17.964844c-9.921875 0-17.964844-8.042969-17.964844-17.964844v-17.964844c0-4.960938 4.023438-8.984375 8.984375-8.984375 4.960938 0 8.980469 4.023437 8.980469 8.984375v17.964844h17.964844v-17.964844c0-4.960938 4.023437-8.984375 8.984375-8.984375 4.960937 0 8.980469 4.023437 8.980469 8.984375v17.964844c0 9.921875-8.042969 17.964844-17.964844 17.964844zm0 0" fill="#f3d55b"/><path d="m375.542969 426.667969h-265.523438c-2.699219 0-5.257812-1.207031-6.964843-3.296875-1.707032-2.089844-2.386719-4.839844-1.847657-7.484375l15.820313-79.042969h251.507812l15.816406 79.042969c.542969 2.644531-.136718 5.394531-1.84375 7.484375-1.710937 2.089844-4.265624 3.296875-6.964843 3.296875zm0 0" fill="#4c8056"/><g fill="#f3d55b"><path d="m152.957031 399.71875c-4.960937 0-8.984375-4.019531-8.984375-8.980469v-17.964843c0-4.960938 4.023438-8.984376 8.984375-8.984376 4.960938 0 8.980469 4.023438 8.980469 8.984376v17.964843c0 4.960938-4.019531 8.980469-8.980469 8.980469zm0 0"/><path d="m188.886719 399.71875c-4.960938 0-8.984375-4.019531-8.984375-8.980469v-17.964843c0-4.960938 4.023437-8.984376 8.984375-8.984376 4.960937 0 8.980469 4.023438 8.980469 8.984376v17.964843c0 4.960938-4.019532 8.980469-8.980469 8.980469zm0 0"/><path d="m224.816406 399.71875c-4.960937 0-8.984375-4.019531-8.984375-8.980469v-17.964843c0-4.960938 4.023438-8.984376 8.984375-8.984376 4.960938 0 8.980469 4.023438 8.980469 8.984376v17.964843c0 4.960938-4.019531 8.980469-8.980469 8.980469zm0 0"/><path d="m260.746094 399.71875c-4.960938 0-8.984375-4.019531-8.984375-8.980469v-17.964843c0-4.960938 4.023437-8.984376 8.984375-8.984376 4.960937 0 8.980468 4.023438 8.980468 8.984376v17.964843c0 4.960938-4.019531 8.980469-8.980468 8.980469zm0 0"/><path d="m296.675781 399.71875c-4.960937 0-8.984375-4.019531-8.984375-8.980469v-17.964843c0-4.960938 4.023438-8.984376 8.984375-8.984376 4.960938 0 8.980469 4.023438 8.980469 8.984376v17.964843c0 4.960938-4.019531 8.980469-8.980469 8.980469zm0 0"/><path d="m332.605469 399.71875c-4.960938 0-8.984375-4.019531-8.984375-8.980469v-17.964843c0-4.960938 4.023437-8.984376 8.984375-8.984376 4.960937 0 8.980469 4.023438 8.980469 8.984376v17.964843c0 4.960938-4.019532 8.980469-8.980469 8.980469zm0 0"/></g><path d="m242.78125 0c69.453125 0 125.753906 56.300781 125.753906 125.753906v193.125h-251.507812v-193.125c0-69.453125 56.300781-125.753906 125.753906-125.753906zm0 0" fill="#7ed09e"/><path d="m179.902344 183.78125h35.929687v112.640625h-35.929687zm0 0" fill="#4c8056"/><path d="m278.710938 237.675781h35.929687v58.746094h-35.929687zm0 0" fill="#4c8056"/><path d="m233.796875 152.703125c0 19.84375-16.085937 35.929687-35.929687 35.929687s-35.929688-16.085937-35.929688-35.929687 16.085938-35.929687 35.929688-35.929687 35.929687 16.085937 35.929687 35.929687zm0 0" fill="#e6e7e8"/><path d="m332.605469 206.597656c0 19.84375-16.085938 35.929688-35.929688 35.929688s-35.929687-16.085938-35.929687-35.929688 16.085937-35.929687 35.929687-35.929687 35.929688 16.085937 35.929688 35.929687zm0 0" fill="#e6e7e8"/><path d="m206.851562 152.703125c0 4.960937-4.023437 8.980469-8.984374 8.980469-4.960938 0-8.980469-4.019532-8.980469-8.980469s4.019531-8.984375 8.980469-8.984375c4.960937 0 8.984374 4.023438 8.984374 8.984375zm0 0" fill="#2c2f38"/><path d="m305.65625 206.597656c0 4.960938-4.019531 8.980469-8.980469 8.980469-4.960937 0-8.984375-4.019531-8.984375-8.980469 0-4.960937 4.023438-8.984375 8.984375-8.984375 4.960938 0 8.980469 4.023438 8.980469 8.984375zm0 0" fill="#2c2f38"/><path d="m121.515625 296.421875h242.527344c12.402343 0 22.457031 10.054687 22.457031 22.457031s-10.054688 22.453125-22.457031 22.453125h-242.527344c-12.398437 0-22.453125-10.050781-22.453125-22.453125s10.054688-22.457031 22.453125-22.457031zm0 0" fill="#4fba6f"/><path d="m161.9375 98.808594c-3.109375-.003906-5.996094-1.617188-7.628906-4.261719-1.636719-2.644531-1.785156-5.945313-.398438-8.726563.804688-1.617187 20.261719-39.742187 59.757813-49.613281 4.761719-1.070312 9.507812 1.855469 10.6875 6.589844 1.179687 4.734375-1.632813 9.546875-6.339844 10.835937-31.332031 7.84375-47.886719 39.910157-48.039063 40.234376-1.527343 3.035156-4.640624 4.945312-8.039062 4.941406zm0 0" fill="#fff"/><path d="m134.992188 480.5625c0 14.882812-12.066407 26.945312-26.949219 26.945312-14.882813 0-26.945313-12.0625-26.945313-26.945312s12.0625-26.949219 26.945313-26.949219c14.882812 0 26.949219 12.066407 26.949219 26.949219zm0 0" fill="#2c2f38"/><path d="m224.816406 480.5625c0 14.882812-12.066406 26.945312-26.949218 26.945312-14.882813 0-26.945313-12.0625-26.945313-26.945312s12.0625-26.949219 26.945313-26.949219c14.882812 0 26.949218 12.066407 26.949218 26.949219zm0 0" fill="#2c2f38"/><path d="m314.640625 480.5625c0 14.882812-12.066406 26.945312-26.949219 26.945312-14.882812 0-26.945312-12.0625-26.945312-26.945312s12.0625-26.949219 26.945312-26.949219c14.882813 0 26.949219 12.066407 26.949219 26.949219zm0 0" fill="#2c2f38"/><path d="m404.464844 480.5625c0 14.882812-12.066406 26.945312-26.949219 26.945312-14.878906 0-26.945313-12.0625-26.945313-26.945312s12.066407-26.949219 26.945313-26.949219c14.882813 0 26.949219 12.066407 26.949219 26.949219zm0 0" fill="#2c2f38"/><path d="m260.746094 35.929688c0 4.960937-4.023438 8.984374-8.984375 8.984374-4.960938 0-8.980469-4.023437-8.980469-8.984374 0-4.960938 4.019531-8.980469 8.980469-8.980469 4.960937 0 8.984375 4.019531 8.984375 8.980469zm0 0" fill="#fff"/></svg>